<?xml version="1.0" encoding="UTF-8" standalone="no"?>
<svg
   xmlns:dc="http://purl.org/dc/elements/1.1/"
   xmlns:cc="http://creativecommons.org/ns#"
   xmlns:rdf="http://www.w3.org/1999/02/22-rdf-syntax-ns#"
   xmlns:svg="http://www.w3.org/2000/svg"
   xmlns="http://www.w3.org/2000/svg"
   xmlns:sodipodi="http://sodipodi.sourceforge.net/DTD/sodipodi-0.dtd"
   xmlns:inkscape="http://www.inkscape.org/namespaces/inkscape"
   version="1.1"
   id="Capa_1"
   x="0px"
   y="0px"
   width="543.545px"
   height="543.545px"
   viewBox="0 0 543.545 543.545"
   style="enable-background:new 0 0 543.545 543.545;"
   xml:space="preserve"
   sodipodi:docname="base.svg"
   inkscape:version="1.0.2-2 (e86c870879, 2021-01-15)"
   inkscape:export-filename="D:\workspace\comptabox\src\assets\icons\icon-72x72.png"
   inkscape:export-xdpi="12.716518"
   inkscape:export-ydpi="12.716518"><metadata
   id="metadata913"><rdf:RDF><cc:Work
       rdf:about=""><dc:format>image/svg+xml</dc:format><dc:type
         rdf:resource="http://purl.org/dc/dcmitype/StillImage" /><dc:title></dc:title></cc:Work></rdf:RDF></metadata><defs
   id="defs911">
	
<clipPath
   clipPathUnits="userSpaceOnUse"
   id="clipPath919"><ellipse
     style="fill:#000000;fill-opacity:1;stroke:#7259ff;stroke-width:0.944882"
     id="ellipse921"
     cx="298.35892"
     cy="97.15538"
     rx="76.477043"
     ry="88.621468" /></clipPath><clipPath
   clipPathUnits="userSpaceOnUse"
   id="clipPath985"><path
     style="fill:none;stroke:#000000;stroke-width:1px;stroke-linecap:butt;stroke-linejoin:miter;stroke-opacity:1"
     d="m 221.0335,113.38814 17.72429,61.05034 43.9825,28.88403 44.63896,-3.28227 34.13568,-36.7615 109.62803,-87.308553 154.92345,195.623673 -66.95844,319.03727 c 0,0 -622.319615,-18.38074 -622.976071,-24.28884 -0.656455,-5.9081 28.227578,-519.256136 28.227578,-519.256136 z"
     id="path987" /></clipPath></defs><sodipodi:namedview
   pagecolor="#ffffff"
   bordercolor="#666666"
   borderopacity="1"
   objecttolerance="10"
   gridtolerance="10"
   guidetolerance="10"
   inkscape:pageopacity="1"
   inkscape:pageshadow="2"
   inkscape:window-width="2400"
   inkscape:window-height="1271"
   id="namedview909"
   showgrid="false"
   inkscape:zoom="0.53857954"
   inkscape:cx="-432.54312"
   inkscape:cy="447.8715"
   inkscape:window-x="1991"
   inkscape:window-y="-9"
   inkscape:window-maximized="1"
   inkscape:current-layer="Capa_1"
   inkscape:document-rotation="0" />

<g
   id="g878">
</g>
<g
   id="g880">
</g>
<g
   id="g882">
</g>
<g
   id="g884">
</g>
<g
   id="g886">
</g>
<g
   id="g888">
</g>
<g
   id="g890">
</g>
<g
   id="g892">
</g>
<g
   id="g894">
</g>
<g
   id="g896">
</g>
<g
   id="g898">
</g>
<g
   id="g900">
</g>
<g
   id="g902">
</g>
<g
   id="g904">
</g>
<g
   id="g906">
</g>
<g
   id="g1008"
   transform="matrix(0.86848157,0,0,0.86848157,43.687799,29.000835)"><path
     d="m 535.06327,173.77462 c -4.686,-3.128 -11.017,-1.856 -14.145,2.829 -5.331,7.997 -12.661,11.451 -18.958,12.859 -0.055,-11.879 -5.808,-24.276 -16.341,-34.809 -10.057,-10.057 -24.663,-12.077 -34.728,-4.828 -7.527,5.433 -13.457,17.483 -5.406,33.599 5.012,10.03 14.273,18.061 25.548,22.767 -2.135,1.51 -4.604,2.965 -7.385,4.352 -6.113,3.06 -12.369,4.889 -18.428,5.95 -14.682,-29.988 -41.215,-55.637 -75.297,-73.746 -12.45,29.192 -41.433,49.715 -75.119,49.715 -43.255,0 -78.656,-33.851 -81.342,-76.446 -4.229,0.408 -8.391,0.864 -12.464,1.394 -25.548,-16.544 -72.957,-36.910002 -120.394002,-33.749002 2.189,19.720002 14.287,45.050002 29.879002,63.329002 -30.212002,18.666 -49.688002,44.146 -59.493002,73.644 -11.499,5.045 -23.916,8.248 -37.794,9.187 -10.1459998,0.694 -17.8099998,9.398 -17.0879998,19.543 1.876,26.152 9.622,70.699 40.2959998,82.498 5.746,2.209 14.913,3.516 25.827,4.209 13.001,21.244 32.083,39.938 55.638002,54.754 -3.944,19.699 -8.82,39.568 -14.824,59.643 -2.598,8.67 3.971,17.395 13.036,17.395 h 57.134 c 5.65,0 10.805,-3.461 12.77,-8.758 4.495,-12.145 8.296,-24.576 11.526,-37.238 16.952,3.381 34.741,5.195 53.094,5.195 21.346,0 41.929,-2.441 61.309,-6.949 -2.522,10.078 -5.223,20.184 -8.262,30.35 -2.604,8.676 3.964,17.4 13.028,17.4 h 57.134 c 5.651,0 10.806,-3.461 12.771,-8.758 10.18,-27.492 16.919,-56.387 21.046,-86.334 31.362,-27.404 50.375,-63.07 50.375,-102.107 0,-11.982 -1.85,-23.638 -5.229,-34.844 6.568,-1.462 13.314,-3.686 19.992,-7.031 11.05,-5.521 18.006,-11.886 22.345,-18.047 17.605,-0.36 33.347,-8.67 42.778,-22.814 3.127,-4.695 1.856,-11.026 -2.829,-14.154 z m -406.858,49.286 c -9.391,0 -17,-7.609 -17,-17 0,-9.391 7.609,-17 17,-17 9.391,0 17,7.609 17,17 0,9.391 -7.61,17 -17,17 z m 335.526,-48.763 c -2.074,-4.141 -2.033,-7.126 -0.918,-7.929 0.441,-0.32 1.115,-0.51 1.938,-0.51 1.707,0 4.08,0.85 6.439,3.216 6.182,6.188 9.854,13.137 10.315,19.271 -7.996,-2.657 -14.619,-7.744 -17.774,-14.048 z M 294.80527,42.860618 c -37.557,0 -68,30.443 -68,68.000002 0,37.556 30.443,68 68,68 37.557,0 68,-30.444 68,-68 0,-37.556002 -30.443,-68.000002 -68,-68.000002 z m 21.801,54.115 c -3.543,1.197 -7.419,-0.714 -8.609,-4.291 -1.122,-3.353 -5.249,-7.263 -13.191,-7.263 -6.365,0 -10.118,4.196 -10.554,8.351 -0.537,5.175 3.931,9.262002 11.947,10.941002 18.306,3.829 23.657,16.211 22.686,25.643 -0.979,9.493 -8.004,17 -17.279,19.543 v 5.665 c 0,3.76 -3.039,6.8 -6.8,6.8 -3.761,0 -6.8,-3.04 -6.8,-6.8 v -5.393 c -10.873,-2.203 -17.156,-9.425 -19.292,-15.817 -1.197,-3.563 0.728,-7.418 4.292,-8.608 3.569,-1.184 7.419,0.728 8.608,4.291 1.122,3.353 5.243,7.263 13.192,7.263 6.364,0 10.118,-4.196 10.554,-8.351 0.537,-5.168 -3.931,-9.255 -11.948,-10.935 -18.306,-3.828 -23.657,-16.218 -22.685,-25.649002 0.979,-9.493 8.004,-17 17.279,-19.543 v -5.657 c 0,-3.761 3.039,-6.8 6.8,-6.8 3.761,0 6.8,3.04 6.8,6.8 v 5.386 c 10.873,2.203 17.149,9.418 19.292,15.816 1.195,3.562 -0.735,7.411 -4.292,8.608 z"
     id="path874"
     clip-path="url(#clipPath919)"
     transform="matrix(0.93009985,0,0,0.93009985,25.254458,39.466242)"
     style="fill:#f1d600;fill-opacity:1" /><g
     id="g981"
     transform="matrix(0.93009985,0,0,0.93009985,21.591046,24.20202)"
     clip-path="url(#clipPath985)"
     style="fill:#673ab7;fill-opacity:1"><g
       id="g925"
       style="fill:#673ab7;fill-opacity:1">
	<path
   d="m 539.002,190.186 c -4.686,-3.128 -11.017,-1.856 -14.145,2.829 -5.331,7.997 -12.661,11.451 -18.958,12.859 -0.055,-11.879 -5.808,-24.276 -16.341,-34.809 -10.057,-10.057 -24.663,-12.077 -34.728,-4.828 -7.527,5.433 -13.457,17.483 -5.406,33.599 5.012,10.03 14.273,18.061 25.548,22.767 -2.135,1.51 -4.604,2.965 -7.385,4.352 -6.113,3.06 -12.369,4.889 -18.428,5.95 -14.682,-29.988 -41.215,-55.637 -75.297,-73.746 -12.45,29.192 -41.433,49.715 -75.119,49.715 -43.255,0 -78.656,-33.851 -81.342,-76.446 -4.229,0.408 -8.391,0.864 -12.464,1.394 -25.548,-16.544 -72.957,-36.91 -120.394,-33.749 2.189,19.72 14.287,45.05 29.879,63.329 -30.212,18.666 -49.688,44.146 -59.493,73.644 -11.499,5.045 -23.916,8.248 -37.794,9.187 -10.146,0.694 -17.81,9.398 -17.088,19.543 1.876,26.152 9.622,70.699 40.296,82.498 5.746,2.209 14.913,3.516 25.827,4.209 13.001,21.244 32.083,39.938 55.638,54.754 -3.944,19.699 -8.82,39.568 -14.824,59.643 -2.598,8.67 3.971,17.395 13.036,17.395 h 57.134 c 5.65,0 10.805,-3.461 12.77,-8.758 4.495,-12.145 8.296,-24.576 11.526,-37.238 16.952,3.381 34.741,5.195 53.094,5.195 21.346,0 41.929,-2.441 61.309,-6.949 -2.522,10.078 -5.223,20.184 -8.262,30.35 -2.604,8.676 3.964,17.4 13.028,17.4 h 57.134 c 5.651,0 10.806,-3.461 12.771,-8.758 10.18,-27.492 16.919,-56.387 21.046,-86.334 31.362,-27.404 50.375,-63.07 50.375,-102.107 0,-11.982 -1.85,-23.638 -5.229,-34.844 6.568,-1.462 13.314,-3.686 19.992,-7.031 11.05,-5.521 18.006,-11.886 22.345,-18.047 17.605,-0.36 33.347,-8.67 42.778,-22.814 3.127,-4.695 1.856,-11.026 -2.829,-14.154 z m -406.858,49.286 c -9.391,0 -17,-7.609 -17,-17 0,-9.391 7.609,-17 17,-17 9.391,0 17,7.609 17,17 0,9.391 -7.61,17 -17,17 z M 467.67,190.709 c -2.074,-4.141 -2.033,-7.126 -0.918,-7.929 0.441,-0.32 1.115,-0.51 1.938,-0.51 1.707,0 4.08,0.85 6.439,3.216 6.182,6.188 9.854,13.137 10.315,19.271 -7.996,-2.657 -14.619,-7.744 -17.774,-14.048 z M 298.744,59.272 c -37.557,0 -68,30.443 -68,68 0,37.556 30.443,68 68,68 37.557,0 68,-30.444 68,-68 0,-37.556 -30.443,-68 -68,-68 z m 21.801,54.115 c -3.543,1.197 -7.419,-0.714 -8.609,-4.291 -1.122,-3.353 -5.249,-7.263 -13.191,-7.263 -6.365,0 -10.118,4.196 -10.554,8.351 -0.537,5.175 3.931,9.262 11.947,10.941 18.306,3.829 23.657,16.211 22.686,25.643 -0.979,9.493 -8.004,17 -17.279,19.543 v 5.665 c 0,3.76 -3.039,6.8 -6.8,6.8 -3.761,0 -6.8,-3.04 -6.8,-6.8 v -5.393 c -10.873,-2.203 -17.156,-9.425 -19.292,-15.817 -1.197,-3.563 0.728,-7.418 4.292,-8.608 3.569,-1.184 7.419,0.728 8.608,4.291 1.122,3.353 5.243,7.263 13.192,7.263 6.364,0 10.118,-4.196 10.554,-8.351 0.537,-5.168 -3.931,-9.255 -11.948,-10.935 -18.306,-3.828 -23.657,-16.218 -22.685,-25.649 0.979,-9.493 8.004,-17 17.279,-19.543 v -5.657 c 0,-3.761 3.039,-6.8 6.8,-6.8 3.761,0 6.8,3.04 6.8,6.8 v 5.386 c 10.873,2.203 17.149,9.418 19.292,15.816 1.195,3.562 -0.735,7.411 -4.292,8.608 z"
   id="path923"
   style="fill:#673ab7;fill-opacity:1" />
</g><g
       id="g927"
       style="fill:#673ab7;fill-opacity:1">
</g><g
       id="g929"
       style="fill:#673ab7;fill-opacity:1">
</g><g
       id="g931"
       style="fill:#673ab7;fill-opacity:1">
</g><g
       id="g933"
       style="fill:#673ab7;fill-opacity:1">
</g><g
       id="g935"
       style="fill:#673ab7;fill-opacity:1">
</g><g
       id="g937"
       style="fill:#673ab7;fill-opacity:1">
</g><g
       id="g939"
       style="fill:#673ab7;fill-opacity:1">
</g><g
       id="g941"
       style="fill:#673ab7;fill-opacity:1">
</g><g
       id="g943"
       style="fill:#673ab7;fill-opacity:1">
</g><g
       id="g945"
       style="fill:#673ab7;fill-opacity:1">
</g><g
       id="g947"
       style="fill:#673ab7;fill-opacity:1">
</g><g
       id="g949"
       style="fill:#673ab7;fill-opacity:1">
</g><g
       id="g951"
       style="fill:#673ab7;fill-opacity:1">
</g><g
       id="g953"
       style="fill:#673ab7;fill-opacity:1">
</g><g
       id="g955"
       style="fill:#673ab7;fill-opacity:1">
</g></g></g></svg>
